<?xml version="1.0" encoding="utf-8"?>
<!-- Generator: Adobe Illustrator 17.0.0, SVG Export Plug-In . SVG Version: 6.00 Build 0)  -->
<!DOCTYPE svg PUBLIC "-//W3C//DTD SVG 1.1//EN" "http://www.w3.org/Graphics/SVG/1.1/DTD/svg11.dtd">
<svg version="1.1" id="Layer_1" xmlns="http://www.w3.org/2000/svg" xmlns:xlink="http://www.w3.org/1999/xlink" x="0px" y="0px"
	 width="900px" height="900px" viewBox="0 0 900 900" enable-background="new 0 0 900 900" xml:space="preserve">
<rect display="none" fill="#BE1E2D" width="900" height="900"/>
<g>
	<path fill="#FBB040" d="M98.822,360.094c2.082,0,3.884,0,5.687,0c93.789,0,187.578,0.005,281.367-0.02
		c3.458-0.001,6.382-0.426,6.349,4.879c-0.03,4.942-1.639,6.015-6.313,6.008c-89.457-0.13-178.915-0.096-268.373-0.096
		c-1.499,0-3.01,0.126-4.496-0.012c-3.569-0.331-4.052,1.706-4.029,4.623c0.086,11.327,0.033,22.656,0.03,33.984
		c-0.002,9.162-0.156,18.328,0.058,27.485c0.098,4.19-2.403,3.987-5.187,3.927c-2.803-0.06-5.716,0.604-5.691-3.994
		c0.134-24.654,0.077-49.309,0.104-73.964C98.329,362.272,98.545,361.631,98.822,360.094z"/>
	<path fill="#FBB040" d="M508.354,370.865c0-3.835,0-6.921,0-10.485c2.177-0.103,4.117-0.275,6.058-0.275
		c93.605-0.013,187.209-0.013,280.814-0.01c6.484,0,6.495,0.014,6.497,6.552c0.005,22.818,0.008,45.636-0.004,68.455
		c-0.003,5.16-4.73,8.058-9.244,5.359c-1.068-0.639-1.45-3.105-1.458-4.734c-0.098-18.987-0.062-37.975-0.064-56.962
		c-0.001-7.895-0.004-7.9-7.7-7.9c-89.274-0.001-178.548-0.001-267.823-0.001C513.155,370.865,510.88,370.865,508.354,370.865z"/>
	<path fill="#FBB040" d="M166.957,562.419c-20.979-0.001-41.96-0.126-62.936,0.096c-4.676,0.05-5.879-1.499-5.84-6.004
		c0.201-23.142,0.086-46.287,0.099-69.43c0.003-5.031,5.022-8.008,9.326-5.242c1.067,0.686,1.372,3.151,1.379,4.801
		c0.091,19.647,0.247,39.297-0.065,58.939c-0.083,5.204,1.607,6.399,6.517,6.376c37.961-0.176,75.924-0.1,113.886-0.091
		c6.511,0.002,6.407,0.143,6.477,6.237c0.044,3.783-1.757,4.372-4.907,4.352c-13.819-0.089-27.639-0.035-41.459-0.034
		C181.942,562.42,174.45,562.419,166.957,562.419z"/>
	<path fill="#FBB040" d="M733.202,562.418c-20.81,0-41.621,0.01-62.432-0.007c-5.552-0.005-8.053-3.562-5.681-8.574
		c0.526-1.112,2.917-1.857,4.465-1.886c9.487-0.173,18.978-0.092,28.467-0.092c28.968-0.001,57.937-0.104,86.904,0.099
		c4.858,0.034,6.189-1.475,6.13-6.24c-0.246-19.642-0.006-39.29-0.181-58.933c-0.036-4.018,0.968-5.516,5.249-5.516
		c4.337,0,5.734,1.214,5.695,5.667c-0.204,23.306-0.202,46.616-0.002,69.922c0.038,4.43-1.343,5.687-5.685,5.647
		C775.157,562.313,754.179,562.418,733.202,562.418z"/>
</g>
<g>
	<path fill="#FFFFFF" d="M507.846,380.096h-6.085v-8.066c0-26.14-21.267-47.408-47.408-47.408h-4.666
		c-6.053-3.393-11.218-6.433-13.522-9.202l-3.893-4.678c0.037-0.03,0.073-0.059,0.109-0.089c1.598-1.33,2.583-3.203,2.773-5.273
		c0.189-2.07-0.438-4.091-1.768-5.689c-1.33-1.598-3.202-2.583-5.272-2.772c-2.071-0.19-4.091,0.439-5.689,1.768
		c-1.829,1.521-2.783,3.71-2.802,5.92c-0.213-0.037-0.429-0.066-0.647-0.086c-2.071-0.189-4.091,0.439-5.689,1.768
		s-2.583,3.202-2.773,5.272c-0.19,2.071,0.438,4.091,1.768,5.689c2.746,3.299,7.662,3.751,10.963,1.005
		c0.036-0.03,0.072-0.06,0.107-0.091l3.893,4.678c0.404,0.486,0.811,1.078,1.228,1.78h-1.856c-4.867,0-9.578,1.367-13.666,3.951
		c-1.068-0.488-1.992-0.994-2.729-1.529l-4.926-3.575c0.029-0.038,0.056-0.075,0.084-0.114c1.222-1.683,1.714-3.74,1.389-5.794
		c-0.327-2.053-1.433-3.856-3.116-5.078c-1.682-1.221-3.74-1.714-5.794-1.387c-2.053,0.326-3.856,1.433-5.077,3.115
		c-1.398,1.925-1.782,4.282-1.257,6.429c-0.216,0.016-0.433,0.042-0.648,0.076c-2.053,0.327-3.857,1.433-5.078,3.116
		c-1.221,1.682-1.713,3.739-1.387,5.792c0.326,2.054,1.433,3.858,3.115,5.078c1.683,1.221,3.74,1.714,5.793,1.388
		c2.053-0.327,3.857-1.433,5.078-3.116c0.028-0.038,0.055-0.077,0.081-0.115l4.926,3.575c0.355,0.258,0.716,0.56,1.084,0.899
		c-2.282,3.907-3.486,8.336-3.486,12.901c0,12.999,7.433,24.295,18.273,29.86h-10.489c-1.016,0-1.84,0.824-1.84,1.84
		c0,1.016,0.824,1.84,1.84,1.84h0.673l2.005,5.013c1.19,2.972,4.026,4.893,7.228,4.893h79.185c3.202,0,6.039-1.92,7.227-4.893
		l2.005-5.013h0.736c1.016,0,1.84-0.824,1.84-1.84C509.687,380.92,508.862,380.096,507.846,380.096L507.846,380.096z
		 M432.653,324.622c-0.159-0.316-0.316-0.62-0.474-0.913l3.943-3.28c1.712,1.374,3.824,2.763,6.198,4.193H432.653z M424.773,314.118
		c-0.382-0.46-0.965-0.706-1.561-0.658c-0.595,0.047-1.131,0.381-1.437,0.896c-0.263,0.445-0.553,0.796-0.884,1.07
		c-1.74,1.448-4.332,1.21-5.779-0.53c-0.701-0.842-1.033-1.907-0.932-2.998c0.099-1.091,0.619-2.079,1.461-2.781
		c0.842-0.701,1.907-1.031,3-0.932c1.091,0.101,2.078,0.62,2.779,1.463c0.65,0.781,1.81,0.886,2.591,0.237
		c0.437-0.364,0.662-0.888,0.664-1.415c0-0.416-0.14-0.833-0.426-1.176c-1.447-1.74-1.209-4.332,0.531-5.779
		c0.842-0.701,1.907-1.033,2.999-0.932c1.091,0.099,2.078,0.62,2.78,1.462c0.701,0.842,1.031,1.907,0.932,3
		c-0.101,1.09-0.62,2.078-1.463,2.779c-0.331,0.275-0.727,0.496-1.214,0.674c-0.562,0.207-0.987,0.673-1.141,1.251
		c-0.156,0.577-0.021,1.194,0.363,1.653l5.301,6.372c0.03,0.036,0.062,0.071,0.092,0.107l-3.268,2.719
		c-0.029-0.036-0.057-0.075-0.087-0.112L424.773,314.118z M408.4,336.062l3.013-4.152c3.992,1.818,9.499,3.285,15.248,4.815
		c8.437,2.245,17.161,4.568,22.054,8.118c6.251,4.537,7.646,13.316,3.109,19.566c-2.198,3.028-5.444,5.02-9.141,5.607
		c-3.696,0.588-7.399-0.3-10.427-2.498c-4.89-3.55-9.803-11.126-14.553-18.451C414.466,344.074,411.366,339.293,408.4,336.062
		L408.4,336.062z M398.859,328.59c-0.319-0.231-0.697-0.351-1.082-0.351c-0.199,0-0.399,0.032-0.593,0.098
		c-0.566,0.193-1.003,0.649-1.172,1.222c-0.146,0.497-0.34,0.908-0.593,1.256c-0.643,0.887-1.594,1.47-2.676,1.641
		c-1.083,0.172-2.167-0.087-3.055-0.731c-0.888-0.645-1.47-1.594-1.642-2.677c-0.171-1.082,0.087-2.167,0.732-3.054
		c0.643-0.888,1.594-1.471,2.676-1.643c1.083-0.172,2.167,0.087,3.055,0.732c0.822,0.596,1.973,0.413,2.57-0.409
		c0.237-0.327,0.351-0.704,0.351-1.078c0-0.57-0.263-1.132-0.76-1.493c-1.831-1.329-2.239-3.899-0.911-5.731
		c0.645-0.886,1.594-1.47,2.678-1.642c1.083-0.171,2.167,0.089,3.055,0.732c0.886,0.643,1.47,1.594,1.641,2.677
		c0.173,1.082-0.087,2.167-0.731,3.054c-0.253,0.349-0.583,0.66-1.011,0.954c-0.493,0.338-0.791,0.895-0.798,1.493
		c-0.008,0.598,0.274,1.162,0.758,1.513l6.709,4.869c0.037,0.028,0.078,0.054,0.115,0.082l-2.497,3.439
		c-0.037-0.028-0.074-0.058-0.113-0.085L398.859,328.59z M404.684,350.237c0-3.522,0.833-6.949,2.426-10.038
		c2.34,2.904,4.876,6.813,7.505,10.868c4.933,7.608,10.034,15.477,15.479,19.428c3.054,2.218,6.651,3.378,10.353,3.378
		c0.933,0,1.874-0.074,2.813-0.223c4.667-0.742,8.766-3.256,11.541-7.08c5.729-7.895,3.969-18.978-3.926-24.707
		c-5.445-3.952-14.506-6.364-23.268-8.695c-3.604-0.96-7.108-1.892-10.122-2.878c2.848-1.306,5.95-1.987,9.132-1.987h4.848
		c0.012,0,0.023,0.002,0.035,0.002c0.016,0,0.031-0.002,0.047-0.002h22.807c24.112,0,43.727,19.616,43.727,43.726v8.066h-63.54
		C418.078,380.096,404.684,366.701,404.684,350.237L404.684,350.237z M501.689,387.423c-0.627,1.567-2.123,2.579-3.81,2.579h-79.186
		c-1.688,0-3.183-1.012-3.81-2.579l-1.459-3.646h89.724L501.689,387.423z M501.689,387.423"/>
	<path fill="#FFFFFF" d="M445.409,359.753c-0.266,0.366-0.569,0.702-0.9,0.997c-0.759,0.676-0.828,1.839-0.152,2.598
		c0.363,0.409,0.869,0.617,1.375,0.617c0.435,0,0.872-0.153,1.222-0.465c0.529-0.471,1.011-1.004,1.433-1.585
		c1.218-1.68,1.862-3.662,1.859-5.736c-0.001-1.016-0.824-1.839-1.84-1.839h-0.002c-1.016,0.001-1.839,0.827-1.838,1.843
		C446.569,357.473,446.167,358.709,445.409,359.753L445.409,359.753z M445.409,359.753"/>
	<path fill="#FFFFFF" d="M430.086,345.861c4.954,1.385,11.02,3.25,13.973,5.395c0.327,0.236,0.704,0.351,1.08,0.351
		c0.569,0,1.131-0.263,1.49-0.759c0.597-0.823,0.415-1.973-0.409-2.57c-3.407-2.474-9.567-4.402-15.144-5.96
		c-0.979-0.274-1.993,0.297-2.268,1.276C428.535,344.572,429.107,345.587,430.086,345.861L430.086,345.861z M430.086,345.861"/>
	<path fill="#FFFFFF" d="M462.666,333.427c-2.716-0.583-5.512-0.88-8.311-0.88c-1.016,0-1.84,0.824-1.84,1.84
		c0,1.017,0.824,1.84,1.84,1.84c2.54,0,5.076,0.27,7.538,0.799c0.131,0.028,0.261,0.041,0.389,0.041
		c0.848,0,1.611-0.591,1.797-1.453C464.291,334.621,463.66,333.642,462.666,333.427L462.666,333.427z M462.666,333.427"/>
	<path fill="#FFFFFF" d="M470.983,336.222c-0.921-0.43-2.016-0.031-2.445,0.89c-0.43,0.921-0.031,2.016,0.89,2.445
		c6.953,3.242,12.796,8.75,16.448,15.509c0.333,0.616,0.965,0.965,1.621,0.965c0.295,0,0.594-0.072,0.872-0.222
		c0.895-0.484,1.228-1.599,0.744-2.494C485.089,345.867,478.649,339.796,470.983,336.222L470.983,336.222z M470.983,336.222"/>
</g>
<g>
	<text transform="matrix(1 0 0 1 146.9939 515.4531)" fill="#FFFFFF" font-family="'OpenSans-Bold'" font-size="137.4129">F    DEZM</text>
	<path fill="#FFFFFF" d="M312.917,418.845c6.479,0,11.779-5.301,11.779-11.779s-5.301-11.779-11.779-11.779
		s-11.779,5.301-11.779,11.779S306.439,418.845,312.917,418.845z M251.077,457.127c-16.196,0-29.448,13.251-29.448,29.448
		c0,16.196,13.252,29.448,29.448,29.448s29.448-13.251,29.448-29.448C280.525,470.378,267.273,457.127,251.077,457.127z
		 M251.077,507.188c-11.485,0-20.613-9.129-20.613-20.613c0-11.485,9.129-20.613,20.613-20.613s20.613,9.129,20.613,20.613
		C271.69,498.059,262.562,507.188,251.077,507.188z M285.236,448.587l13.84-14.135l4.417,4.417
		c7.362,7.656,17.669,12.074,29.742,12.074v-11.779c-8.834,0-16.196-3.239-21.497-8.54l-11.485-11.19
		c-1.767-2.061-4.712-3.534-7.951-3.534s-6.184,1.178-8.245,3.534l-16.196,16.196c-2.061,2.061-3.534,5.006-3.534,8.245
		s1.472,6.184,3.534,8.54l18.552,16.491v29.448h11.779v-36.81L285.236,448.587z M333.531,457.127
		c-16.196,0-29.448,13.251-29.448,29.448c0,16.196,13.251,29.448,29.448,29.448c16.196,0,29.448-13.251,29.448-29.448
		C362.978,470.378,349.727,457.127,333.531,457.127z M333.531,507.188c-11.485,0-20.613-9.129-20.613-20.613
		c0-11.485,9.129-20.613,20.613-20.613c11.485,0,20.613,9.129,20.613,20.613C354.144,498.059,345.015,507.188,333.531,507.188z"/>
</g>
<text transform="matrix(1 0 0 1 297.6709 586.1807)" fill="#FFFFFF" font-family="'OpenSans-SemiBold'" font-size="60">Since 1945</text>
<text transform="matrix(1 0 0 1 741.1003 412.5527)" fill="#FFFFFF" font-family="'Raleway-ExtraBold'" font-size="24">TM</text>
</svg>
